<svg viewBox="0 0 91 91" xml:space="preserve" xmlns="http://www.w3.org/2000/svg"><path d="M15.464 30.723c.343-.037.684-.082 1.027-.122-.474 4.487-.731 9.004-.938 13.504-.304 6.73-1.351 13.971-.8 20.687.494 6.028 5.519 6.497 10.482 6.553 3.364.037 12.804.042 14.024-.288 10.561 7.425 22.968 11.636 33.39 19.305 2.448 1.802 5.977-.634 5.925-3.402-.542-27.744-1.77-55.509-1.173-83.264.05-2.344-2.716-3.956-4.72-2.708C62.019 7.613 51.23 13.984 41.204 21.522c-.928-1.161-2.354-1.909-4.59-1.947-6.953-.12-14.195 1.115-21.15 1.535-6.23.377-6.059 10.3 0 9.613zM70.819 9.195c-1.141 23.427.07 46.825-.04 70.26C61.89 73.75 43.58 62.549 43.431 62.449c.055-3.696.079-7.39.067-11.086a573.52 573.52 0 0 0-.453-20.737c-.069-1.762-.091-3.644-.371-5.348 9.088-5.828 18.68-10.882 28.145-16.083zM34.465 28.542c.344 3.244.405 18.5.467 22.821.025 1.729-.412 9.705-.055 11.596-1.837-.357-12.466.127-12.583.116-.053-.925-1.363-26.876-1.984-32.928 2.171-.257 13.186-1.515 14.155-1.605z" fill="#dae2f1" class="fill-000000"></path></svg>